<?xml version="1.0" encoding="UTF-8"?>
<svg xmlns="http://www.w3.org/2000/svg" xmlns:xlink="http://www.w3.org/1999/xlink" width="964px" height="328px" viewBox="0 0 723 246" version="1.1">
<g id="surface1">
<path style=" stroke:none;fill-rule:nonzero;fill:rgb(99.215686%,99.215686%,99.215686%);fill-opacity:1;" d="M 0 0 C 238.589844 0 477.179688 0 723 0 C 723 81.179688 723 162.359375 723 246 C 484.410156 246 245.820312 246 0 246 C 0 164.820312 0 83.640625 0 0 Z M 0 0 "/>
<path style=" stroke:none;fill-rule:nonzero;fill:rgb(3.921569%,9.803922%,14.901961%);fill-opacity:1;" d="M 489.75 27 C 498.707031 26.9375 507.664062 26.875 516.890625 26.8125 C 519.699219 26.785156 522.507812 26.757812 525.402344 26.730469 C 528.878906 26.714844 528.878906 26.714844 530.519531 26.714844 C 531.640625 26.710938 532.765625 26.699219 533.890625 26.683594 C 544.277344 26.546875 555.222656 27.714844 563.222656 35.113281 C 569.585938 41.984375 571.140625 48.664062 570.957031 57.898438 C 570.496094 64.214844 567.882812 69.214844 563.25 73.5 C 560.054688 75.75 560.054688 75.75 558 75.75 C 558 76.246094 558 76.738281 558 77.25 C 558.546875 77.324219 559.097656 77.398438 559.660156 77.472656 C 564.414062 78.671875 568.894531 82.949219 571.5 87 C 575.300781 94.585938 576.644531 102.035156 574.40625 110.4375 C 571.847656 117.8125 566.652344 124.328125 559.78125 128.0625 C 550.9375 132.003906 542.230469 132.316406 532.742188 132.21875 C 531.636719 132.214844 530.527344 132.214844 529.421875 132.210938 C 525.371094 132.203125 521.316406 132.167969 517.265625 132.140625 C 508.183594 132.09375 499.105469 132.046875 489.75 132 C 489.75 97.351562 489.75 62.699219 489.75 27 Z M 489.75 27 "/>
<path style=" stroke:none;fill-rule:nonzero;fill:rgb(4.313726%,10.196079%,14.901961%);fill-opacity:1;" d="M 385.5 27 C 398.75 26.90625 398.75 26.90625 412.265625 26.8125 C 415.035156 26.785156 417.804688 26.757812 420.660156 26.730469 C 424.089844 26.714844 424.089844 26.714844 425.707031 26.714844 C 426.8125 26.710938 427.921875 26.699219 429.027344 26.683594 C 439.921875 26.539062 450.84375 28.058594 459.023438 35.972656 C 464.050781 41.863281 466.273438 48.898438 465.945312 56.601562 C 465.175781 64.128906 462.371094 69.066406 456.75 73.960938 C 455.222656 75.019531 454.066406 75.433594 452.25 75.75 C 452.25 76.246094 452.25 76.738281 452.25 77.25 C 452.800781 77.335938 453.351562 77.417969 453.917969 77.503906 C 459.078125 78.730469 463.339844 82.441406 466.285156 86.757812 C 470.148438 93.734375 471.476562 101.027344 469.726562 108.828125 C 467.289062 116.917969 463.097656 123.691406 455.570312 127.804688 C 446.875 131.976562 438.804688 132.207031 429.371094 132.148438 C 428.246094 132.144531 427.121094 132.144531 425.996094 132.140625 C 421.859375 132.132812 417.71875 132.113281 413.578125 132.09375 C 404.3125 132.0625 395.046875 132.03125 385.5 132 C 385.5 97.351562 385.5 62.699219 385.5 27 Z M 385.5 27 "/>
<path style=" stroke:none;fill-rule:nonzero;fill:rgb(3.137255%,29.019609%,14.901961%);fill-opacity:1;" d="M 150 90 C 153.875 93.246094 157.511719 96.644531 161.085938 100.21875 C 161.644531 100.769531 162.203125 101.324219 162.777344 101.898438 C 164.609375 103.714844 166.4375 105.539062 168.265625 107.359375 C 169.207031 108.300781 169.207031 108.300781 170.164062 109.257812 C 173.484375 112.5625 176.800781 115.871094 180.113281 119.183594 C 183.527344 122.59375 186.949219 126 190.375 129.402344 C 193.015625 132.027344 195.652344 134.660156 198.285156 137.292969 C 199.542969 138.550781 200.804688 139.804688 202.070312 141.058594 C 203.835938 142.8125 205.597656 144.574219 207.355469 146.339844 C 207.875 146.851562 208.394531 147.363281 208.925781 147.886719 C 212.515625 151.507812 216.152344 155.386719 217.21875 160.5 C 215.75 167.542969 209.558594 172.730469 204.75 177.75 C 204.402344 178.117188 204.058594 178.484375 203.699219 178.863281 C 197.902344 184.988281 197.902344 184.988281 193.5 186.75 C 180.878906 174.128906 168.253906 161.503906 155.25 148.5 C 151.226562 151.90625 151.226562 151.90625 147.433594 155.492188 C 147.003906 155.925781 146.574219 156.359375 146.128906 156.804688 C 145.683594 157.257812 145.234375 157.710938 144.777344 158.175781 C 144.296875 158.65625 143.820312 159.136719 143.328125 159.632812 C 141.308594 161.664062 139.292969 163.703125 137.277344 165.738281 C 135.792969 167.234375 134.308594 168.730469 132.824219 170.222656 C 132.378906 170.675781 131.933594 171.125 131.476562 171.589844 C 128.6875 174.394531 125.796875 177.035156 122.789062 179.605469 C 121.378906 180.816406 121.378906 180.816406 119.8125 182.625 C 119.378906 182.996094 118.945312 183.367188 118.5 183.75 C 115.785156 183.480469 114.488281 182.261719 112.613281 180.367188 C 112.058594 179.8125 111.5 179.257812 110.929688 178.683594 C 110.042969 177.78125 110.042969 177.78125 109.136719 176.855469 C 108.21875 175.933594 108.21875 175.933594 107.28125 174.992188 C 105.328125 173.027344 103.382812 171.050781 101.4375 169.078125 C 100.113281 167.742188 98.792969 166.410156 97.46875 165.078125 C 94.222656 161.808594 90.984375 158.53125 87.75 155.25 C 89.097656 152.339844 90.824219 150.546875 93.140625 148.3125 C 95.492188 146.035156 97.734375 143.757812 99.859375 141.269531 C 103.824219 136.683594 108.210938 132.496094 112.523438 128.242188 C 113.648438 127.128906 114.773438 126.015625 115.898438 124.898438 C 116.558594 124.246094 117.222656 123.59375 117.902344 122.917969 C 119.511719 121.292969 121.015625 119.597656 122.511719 117.867188 C 125.265625 114.6875 128.191406 111.710938 131.175781 108.75 C 131.71875 108.210938 132.261719 107.667969 132.820312 107.109375 C 134.527344 105.40625 136.242188 103.703125 137.953125 102 C 139.121094 100.835938 140.289062 99.671875 141.457031 98.503906 C 144.304688 95.667969 147.152344 92.832031 150 90 Z M 150 90 "/>
<path style=" stroke:none;fill-rule:nonzero;fill:rgb(4.313726%,10.196079%,14.901961%);fill-opacity:1;" d="M 303 27 C 311.414062 27 319.828125 27 328.5 27 C 331.1875 33.046875 333.78125 39.125 336.328125 45.234375 C 336.683594 46.089844 336.683594 46.089844 337.046875 46.960938 C 343.335938 62.058594 349.433594 77.234375 355.539062 92.402344 C 357.796875 98.011719 360.066406 103.617188 362.339844 109.222656 C 362.640625 109.964844 362.941406 110.707031 363.253906 111.46875 C 364.976562 115.714844 364.976562 115.714844 366.703125 119.960938 C 367.472656 121.859375 368.246094 123.757812 369.015625 125.65625 C 369.242188 126.21875 369.472656 126.78125 369.707031 127.359375 C 371.25 131.164062 371.25 131.164062 371.25 132 C 363.082031 132 354.914062 132 346.5 132 C 343.253906 124.855469 340.34375 117.5625 337.5 110.25 C 315.597656 109.878906 315.597656 109.878906 293.25 109.5 C 292.507812 111.976562 291.765625 114.449219 291 117 C 290.511719 118.347656 290.007812 119.6875 289.46875 121.015625 C 289.230469 121.605469 288.992188 122.195312 288.746094 122.800781 C 288.453125 123.515625 288.160156 124.230469 287.859375 124.96875 C 286.914062 127.289062 285.972656 129.609375 285 132 C 276.832031 132 268.664062 132 260.25 132 C 263.652344 122.777344 267.289062 113.667969 271.03125 104.578125 C 271.628906 103.121094 272.226562 101.664062 272.824219 100.210938 C 274.042969 97.238281 275.261719 94.269531 276.480469 91.300781 C 278.117188 87.324219 279.75 83.347656 281.378906 79.371094 C 283.335938 74.59375 285.296875 69.816406 287.257812 65.039062 C 289.101562 60.550781 290.941406 56.0625 292.78125 51.570312 C 293.902344 48.835938 295.023438 46.101562 296.144531 43.367188 C 296.679688 42.058594 297.214844 40.75 297.753906 39.4375 C 298.492188 37.628906 299.234375 35.824219 299.972656 34.015625 C 300.195312 33.476562 300.414062 32.9375 300.640625 32.382812 C 302.164062 28.671875 302.164062 28.671875 303 27 Z M 303 27 "/>
<path style=" stroke:none;fill-rule:nonzero;fill:rgb(4.313726%,10.196079%,14.901961%);fill-opacity:1;" d="M 628.605469 26.914062 C 629.652344 26.914062 630.695312 26.917969 631.738281 26.925781 C 632.558594 26.929688 632.558594 26.929688 633.398438 26.929688 C 635.15625 26.933594 636.914062 26.945312 638.671875 26.953125 C 639.859375 26.957031 641.050781 26.960938 642.238281 26.964844 C 645.160156 26.972656 648.078125 26.984375 651 27 C 665.320312 62.050781 665.320312 62.050781 672.277344 79.234375 C 677.277344 91.589844 682.316406 103.929688 687.355469 116.265625 C 687.671875 117.035156 687.984375 117.804688 688.308594 118.59375 C 688.898438 120.039062 689.488281 121.484375 690.082031 122.929688 C 690.476562 123.902344 690.476562 123.902344 690.882812 124.890625 C 691.109375 125.453125 691.339844 126.011719 691.574219 126.589844 C 692.308594 128.390625 693.027344 130.195312 693.75 132 C 685.582031 132 677.414062 132 669 132 C 665.492188 124.980469 662.792969 117.582031 660 110.25 C 645.644531 110.25 631.289062 110.25 616.5 110.25 C 613.816406 117.125 613.816406 117.125 611.136719 124.003906 C 610.804688 124.855469 610.472656 125.707031 610.128906 126.582031 C 609.617188 127.898438 609.617188 127.898438 609.09375 129.238281 C 608.25 131.25 608.25 131.25 607.5 132 C 605.664062 132.066406 603.847656 132.085938 602.011719 132.074219 C 601.464844 132.070312 600.917969 132.070312 600.351562 132.070312 C 598.59375 132.066406 596.835938 132.054688 595.078125 132.046875 C 593.890625 132.042969 592.699219 132.039062 591.511719 132.035156 C 588.589844 132.027344 585.671875 132.015625 582.75 132 C 587.394531 120.214844 592.199219 108.503906 597.0625 96.808594 C 601.40625 86.363281 605.707031 75.90625 609.984375 65.4375 C 618.046875 45.703125 618.046875 45.703125 621.210938 38.035156 C 621.78125 36.644531 622.351562 35.257812 622.921875 33.871094 C 623.253906 33.0625 623.589844 32.253906 623.933594 31.421875 C 624.21875 30.722656 624.507812 30.027344 624.804688 29.308594 C 625.828125 27.015625 625.828125 27.015625 628.605469 26.914062 Z M 628.605469 26.914062 "/>
<path style=" stroke:none;fill-rule:nonzero;fill:rgb(2.745098%,29.019609%,14.901961%);fill-opacity:1;" d="M 74.25 84.75 C 75.082031 85.457031 75.914062 86.164062 76.746094 86.875 C 77.207031 87.269531 77.671875 87.664062 78.148438 88.070312 C 80.042969 89.722656 81.808594 91.488281 83.574219 93.277344 C 84.117188 93.824219 84.117188 93.824219 84.667969 94.382812 C 86.1875 95.910156 87.703125 97.445312 89.214844 98.980469 C 93.203125 103.019531 97.1875 107.015625 101.523438 110.6875 C 102.738281 111.742188 103.875 112.847656 105 114 C 103.980469 117.054688 102.667969 118.859375 100.394531 121.121094 C 99.753906 121.765625 99.113281 122.410156 98.453125 123.070312 C 97.410156 124.101562 97.410156 124.101562 96.34375 125.148438 C 95.621094 125.871094 94.898438 126.59375 94.175781 127.316406 C 92.660156 128.828125 91.140625 130.335938 89.617188 131.84375 C 87.679688 133.757812 85.75 135.679688 83.824219 137.605469 C 81.96875 139.457031 80.109375 141.304688 78.25 143.148438 C 77.566406 143.832031 76.878906 144.515625 76.171875 145.21875 C 72.867188 148.488281 69.519531 151.640625 65.996094 154.671875 C 63.046875 157.289062 60.296875 160.113281 57.515625 162.910156 C 56.875 163.554688 56.234375 164.195312 55.574219 164.855469 C 53.546875 166.886719 51.523438 168.917969 49.5 170.953125 C 48.117188 172.339844 46.738281 173.722656 45.355469 175.109375 C 41.984375 178.488281 38.617188 181.867188 35.25 185.25 C 31.082031 181.726562 27.152344 178.046875 23.296875 174.1875 C 22.703125 173.589844 22.105469 172.996094 21.492188 172.382812 C 9.863281 160.628906 9.863281 160.628906 9.429688 153.171875 C 10.347656 148.363281 14.9375 144.496094 18.1875 141.097656 C 18.714844 140.542969 19.246094 139.984375 19.789062 139.410156 C 25.351562 133.574219 31.039062 127.867188 36.75 122.175781 C 37.84375 121.085938 38.933594 119.992188 40.027344 118.902344 C 42.855469 116.074219 45.6875 113.25 48.519531 110.429688 C 51.429688 107.527344 54.335938 104.625 57.242188 101.722656 C 62.90625 96.0625 68.578125 90.40625 74.25 84.75 Z M 74.25 84.75 "/>
<path style=" stroke:none;fill-rule:nonzero;fill:rgb(3.137255%,29.019609%,14.901961%);fill-opacity:1;" d="M 153.75 12.75 C 157.570312 15 160.515625 17.816406 163.609375 20.964844 C 164.105469 21.460938 164.597656 21.957031 165.105469 22.464844 C 166.667969 24.035156 168.222656 25.613281 169.78125 27.1875 C 170.84375 28.257812 171.90625 29.328125 172.972656 30.398438 C 175.570312 33.011719 178.160156 35.628906 180.75 38.25 C 180.046875 41.144531 178.761719 42.550781 176.550781 44.398438 C 173.328125 47.152344 170.324219 50.074219 167.335938 53.078125 C 166.78125 53.636719 166.222656 54.191406 165.648438 54.765625 C 163.828125 56.585938 162.011719 58.410156 160.195312 60.230469 C 158.925781 61.503906 157.65625 62.773438 156.386719 64.042969 C 153.0625 67.371094 149.738281 70.703125 146.414062 74.035156 C 143.019531 77.4375 139.617188 80.839844 136.21875 84.246094 C 129.558594 90.910156 122.90625 97.578125 116.25 104.25 C 115.40625 103.527344 114.5625 102.804688 113.71875 102.082031 C 113.011719 101.480469 113.011719 101.480469 112.292969 100.863281 C 109.976562 98.867188 107.746094 96.78125 105.515625 94.6875 C 104.757812 93.976562 104.757812 93.976562 103.984375 93.253906 C 97.683594 87.308594 91.589844 81.160156 85.5 75 C 86.515625 72.726562 87.640625 71.1875 89.421875 69.457031 C 89.902344 68.984375 90.382812 68.515625 90.875 68.03125 C 91.375 67.546875 91.875 67.0625 92.390625 66.5625 C 93.371094 65.609375 94.351562 64.652344 95.328125 63.691406 C 95.980469 63.058594 95.980469 63.058594 96.644531 62.417969 C 98.003906 61.003906 99.277344 59.5625 100.550781 58.078125 C 104.042969 54.0625 107.820312 50.335938 111.59375 46.585938 C 112.367188 45.8125 113.140625 45.039062 113.914062 44.265625 C 115.933594 42.25 117.957031 40.230469 119.984375 38.214844 C 122.039062 36.167969 124.09375 34.117188 126.148438 32.066406 C 129.761719 28.460938 133.378906 24.851562 136.996094 21.25 C 137.574219 20.671875 138.152344 20.09375 138.75 19.5 C 139.410156 18.84375 140.066406 18.1875 140.746094 17.511719 C 141.890625 16.359375 143.023438 15.195312 144.140625 14.015625 C 147.222656 12.167969 150.246094 12.035156 153.75 12.75 Z M 153.75 12.75 "/>
<path style=" stroke:none;fill-rule:nonzero;fill:rgb(3.137255%,29.019609%,14.901961%);fill-opacity:1;" d="M 78.75 11.25 C 84.929688 14.851562 89.9375 20.765625 94.921875 25.828125 C 95.757812 26.671875 96.59375 27.515625 97.429688 28.359375 C 99.457031 30.402344 101.480469 32.449219 103.5 34.5 C 102.425781 36.953125 101.105469 38.585938 99.214844 40.476562 C 98.636719 41.058594 98.054688 41.640625 97.460938 42.242188 C 96.824219 42.878906 96.1875 43.511719 95.53125 44.164062 C 94.863281 44.835938 94.191406 45.507812 93.503906 46.199219 C 91.667969 48.039062 89.828125 49.878906 87.988281 51.710938 C 86.0625 53.632812 84.140625 55.558594 82.21875 57.484375 C 78.992188 60.714844 75.761719 63.941406 72.53125 67.164062 C 68.792969 70.894531 65.058594 74.628906 61.328125 78.367188 C 58.128906 81.578125 54.921875 84.785156 51.714844 87.988281 C 49.796875 89.902344 47.882812 91.816406 45.96875 93.734375 C 43.839844 95.871094 41.703125 98 39.566406 100.128906 C 38.929688 100.765625 38.296875 101.402344 37.640625 102.0625 C 37.0625 102.636719 36.480469 103.214844 35.878906 103.808594 C 35.121094 104.566406 35.121094 104.566406 34.351562 105.339844 C 33 106.5 33 106.5 30.75 107.25 C 28.109375 104.6875 25.484375 102.113281 22.863281 99.527344 C 21.972656 98.652344 21.078125 97.777344 20.179688 96.90625 C 18.886719 95.648438 17.601562 94.382812 16.320312 93.113281 C 15.921875 92.730469 15.523438 92.347656 15.113281 91.953125 C 11.652344 88.496094 9.972656 85.253906 9.421875 80.296875 C 9.675781 74.777344 12.65625 71.019531 16.566406 67.386719 C 17.84375 66.148438 18.972656 64.890625 20.113281 63.527344 C 24.546875 58.417969 29.425781 53.71875 34.210938 48.941406 C 35.273438 47.875 36.339844 46.808594 37.40625 45.742188 C 39.625 43.519531 41.847656 41.300781 44.070312 39.082031 C 46.925781 36.230469 49.773438 33.378906 52.625 30.527344 C 54.816406 28.328125 57.011719 26.136719 59.207031 23.941406 C 60.257812 22.890625 61.3125 21.839844 62.363281 20.785156 C 63.824219 19.320312 65.289062 17.859375 66.757812 16.394531 C 67.410156 15.742188 67.410156 15.742188 68.074219 15.074219 C 71.453125 11.710938 73.886719 10.269531 78.75 11.25 Z M 78.75 11.25 "/>
<path style=" stroke:none;fill-rule:nonzero;fill:rgb(3.137255%,28.627452%,14.901961%);fill-opacity:1;" d="M 75.75 164.25 C 78.238281 165.335938 79.867188 166.6875 81.777344 168.605469 C 82.359375 169.191406 82.945312 169.777344 83.550781 170.378906 C 84.175781 171.011719 84.796875 171.644531 85.441406 172.296875 C 86.085938 172.941406 86.730469 173.589844 87.394531 174.257812 C 89.453125 176.324219 91.507812 178.394531 93.5625 180.46875 C 94.957031 181.871094 96.351562 183.273438 97.75 184.675781 C 101.171875 188.113281 104.585938 191.554688 108 195 C 105.621094 197.808594 103.25 200.59375 100.648438 203.203125 C 99.898438 203.953125 99.898438 203.953125 99.132812 204.71875 C 98.625 205.226562 98.117188 205.730469 97.59375 206.25 C 96.839844 207.007812 96.839844 207.007812 96.074219 207.78125 C 92.671875 211.171875 89.148438 214.375 85.5 217.5 C 85.074219 217.871094 84.648438 218.246094 84.210938 218.628906 C 80.632812 221.707031 78.210938 222.320312 73.5 222 C 69.199219 220.347656 66.46875 217.511719 63.3125 214.28125 C 62.785156 213.75 62.257812 213.222656 61.714844 212.675781 C 60.042969 210.992188 58.382812 209.300781 56.71875 207.609375 C 55.582031 206.460938 54.449219 205.316406 53.3125 204.171875 C 50.535156 201.371094 47.765625 198.5625 45 195.75 C 45.707031 194.917969 46.410156 194.089844 47.117188 193.261719 C 47.511719 192.800781 47.902344 192.335938 48.308594 191.863281 C 50.015625 189.910156 51.828125 188.101562 53.671875 186.28125 C 54.351562 185.605469 55.035156 184.929688 55.738281 184.234375 C 56.734375 183.253906 56.734375 183.253906 57.75 182.25 C 58.421875 181.546875 59.09375 180.847656 59.785156 180.125 C 61.5 178.5 61.5 178.5 63 178.5 C 63.246094 177.757812 63.496094 177.015625 63.75 176.25 C 64.953125 175.066406 64.953125 175.066406 66.46875 173.8125 C 71.765625 169.585938 71.765625 169.585938 75.75 164.25 Z M 75.75 164.25 "/>
<path style=" stroke:none;fill-rule:nonzero;fill:rgb(3.137255%,28.627452%,14.901961%);fill-opacity:1;" d="M 153.75 168.75 C 156.136719 169.804688 157.734375 171.050781 159.570312 172.898438 C 160.109375 173.4375 160.648438 173.980469 161.207031 174.535156 C 161.78125 175.121094 162.355469 175.703125 162.949219 176.304688 C 163.542969 176.898438 164.140625 177.496094 164.753906 178.113281 C 166.652344 180.019531 168.542969 181.929688 170.4375 183.84375 C 171.722656 185.136719 173.011719 186.433594 174.296875 187.726562 C 177.453125 190.894531 180.601562 194.070312 183.75 197.25 C 182.574219 199.722656 181.3125 201.371094 179.359375 203.3125 C 178.785156 203.886719 178.207031 204.464844 177.613281 205.054688 C 176.707031 205.949219 176.707031 205.949219 175.78125 206.859375 C 175.195312 207.445312 174.609375 208.03125 174.003906 208.636719 C 170.796875 211.820312 167.53125 214.886719 164.085938 217.816406 C 162.640625 219.097656 161.3125 220.457031 159.984375 221.859375 C 157.457031 224.382812 155.746094 225.566406 152.117188 225.898438 C 148.011719 225.878906 145.75 224.886719 142.773438 222.078125 C 142.125 221.46875 141.476562 220.859375 140.808594 220.230469 C 139.789062 219.25 139.789062 219.25 138.75 218.25 C 138.058594 217.597656 137.371094 216.941406 136.65625 216.269531 C 134.539062 214.246094 132.445312 212.195312 130.359375 210.140625 C 129.996094 209.792969 129.632812 209.445312 129.261719 209.085938 C 128.199219 208.066406 127.15625 207.035156 126.109375 206 C 125.492188 205.398438 124.875 204.796875 124.242188 204.179688 C 123 202.5 123 202.5 123.085938 200.890625 C 124.078125 198.8125 125.554688 197.515625 127.21875 195.9375 C 129.457031 193.804688 131.5625 191.667969 133.566406 189.316406 C 137.304688 184.996094 141.398438 181.019531 145.453125 177 C 146.261719 176.195312 147.066406 175.394531 147.875 174.589844 C 149.832031 172.640625 151.789062 170.695312 153.75 168.75 Z M 153.75 168.75 "/>
<path style=" stroke:none;fill-rule:nonzero;fill:rgb(3.137255%,28.627452%,14.901961%);fill-opacity:1;" d="M 191.25 49.5 C 194.777344 52.449219 198.132812 55.515625 201.390625 58.765625 C 202.046875 59.417969 202.046875 59.417969 202.71875 60.085938 C 203.636719 60.996094 204.550781 61.910156 205.464844 62.828125 C 206.863281 64.222656 208.269531 65.617188 209.675781 67.007812 C 210.570312 67.898438 211.464844 68.792969 212.359375 69.6875 C 212.777344 70.097656 213.195312 70.511719 213.628906 70.9375 C 217.171875 74.503906 218.371094 76.5625 218.59375 81.601562 C 217.640625 86.148438 213.628906 89.574219 210.441406 92.703125 C 209.984375 93.160156 209.53125 93.613281 209.058594 94.082031 C 207.609375 95.519531 206.15625 96.957031 204.703125 98.390625 C 203.722656 99.363281 202.746094 100.335938 201.765625 101.308594 C 199.613281 103.445312 197.457031 105.582031 195.296875 107.710938 C 194.195312 108.804688 193.097656 109.902344 192 111 C 181.851562 100.851562 171.703125 90.703125 161.25 80.25 C 166.3125 74.34375 166.3125 74.34375 168.601562 72.0625 C 169.113281 71.554688 169.621094 71.042969 170.148438 70.515625 C 170.683594 69.988281 171.21875 69.457031 171.765625 68.910156 C 172.328125 68.351562 172.886719 67.792969 173.464844 67.214844 C 175.234375 65.449219 177.007812 63.6875 178.78125 61.921875 C 179.988281 60.71875 181.199219 59.511719 182.40625 58.308594 C 185.351562 55.371094 188.300781 52.433594 191.25 49.5 Z M 191.25 49.5 "/>
<path style=" stroke:none;fill-rule:nonzero;fill:rgb(4.313726%,9.803922%,14.901961%);fill-opacity:1;" d="M 324 162 C 337.613281 162 351.226562 162 365.25 162 C 365.25 165.710938 365.25 169.425781 365.25 173.25 C 355.84375 173.25 346.441406 173.25 336.75 173.25 C 336.75 177.457031 336.75 181.664062 336.75 186 C 345.164062 186 353.578125 186 362.25 186 C 362.25 189.464844 362.25 192.929688 362.25 196.5 C 353.835938 196.5 345.421875 196.5 336.75 196.5 C 336.75 200.707031 336.75 204.914062 336.75 209.25 C 346.402344 209.25 356.054688 209.25 366 209.25 C 366 212.960938 366 216.675781 366 220.5 C 352.140625 220.5 338.28125 220.5 324 220.5 C 324 201.195312 324 181.890625 324 162 Z M 324 162 "/>
<path style=" stroke:none;fill-rule:nonzero;fill:rgb(4.705882%,10.588235%,15.686275%);fill-opacity:1;" d="M 597 162 C 610.613281 162 624.226562 162 638.25 162 C 638.25 165.464844 638.25 168.929688 638.25 172.5 C 629.09375 172.746094 619.933594 172.996094 610.5 173.25 C 610.253906 177.457031 610.003906 181.664062 609.75 186 C 618.164062 186 626.578125 186 635.25 186 C 635.25 189.464844 635.25 192.929688 635.25 196.5 C 627.082031 196.5 618.914062 196.5 610.5 196.5 C 610.5 200.707031 610.5 204.914062 610.5 209.25 C 619.90625 209.25 629.308594 209.25 639 209.25 C 639 212.960938 639 216.675781 639 220.5 C 625.140625 220.5 611.28125 220.5 597 220.5 C 597 201.195312 597 181.890625 597 162 Z M 597 162 "/>
<path style=" stroke:none;fill-rule:nonzero;fill:rgb(4.313726%,9.803922%,14.509805%);fill-opacity:1;" d="M 380.25 162 C 385.425781 161.054688 390.941406 160.214844 396 162 C 401.375 166.726562 403.925781 174.246094 406.5 180.75 C 406.996094 180.75 407.488281 180.75 408 180.75 C 408.214844 180.207031 408.429688 179.664062 408.652344 179.101562 C 413.921875 166.023438 413.921875 166.023438 418.5 162 C 423.558594 160.214844 429.074219 161.054688 434.25 162 C 430.605469 167.898438 426.726562 173.621094 422.78125 179.324219 C 420.253906 182.988281 417.824219 186.699219 415.5 190.5 C 416.019531 191.230469 416.539062 191.957031 417.074219 192.710938 C 421.671875 199.183594 426.207031 205.695312 430.6875 212.25 C 431.4375 213.34375 431.4375 213.34375 432.207031 214.460938 C 432.667969 215.140625 433.128906 215.816406 433.605469 216.515625 C 434.019531 217.121094 434.433594 217.726562 434.859375 218.351562 C 435.75 219.75 435.75 219.75 435.75 220.5 C 421.890625 221.710938 421.890625 221.710938 418.046875 219.25 C 416.683594 217.242188 415.746094 215.214844 414.75 213 C 413.457031 210.824219 412.082031 208.707031 410.71875 206.578125 C 410.070312 205.53125 409.425781 204.484375 408.78125 203.433594 C 407.496094 201.1875 407.496094 201.1875 406.5 200.25 C 406.167969 200.785156 405.835938 201.316406 405.492188 201.867188 C 404.253906 203.851562 403.015625 205.832031 401.777344 207.816406 C 400.976562 209.09375 400.179688 210.375 399.382812 211.652344 C 398.878906 212.457031 398.375 213.261719 397.859375 214.09375 C 397.394531 214.835938 396.929688 215.578125 396.453125 216.34375 C 395.570312 217.742188 394.667969 219.125 393.75 220.5 C 392.132812 220.753906 392.132812 220.753906 390.15625 220.71875 C 389.453125 220.710938 388.746094 220.707031 388.019531 220.699219 C 387.28125 220.679688 386.542969 220.660156 385.78125 220.640625 C 384.664062 220.625 384.664062 220.625 383.523438 220.609375 C 381.683594 220.582031 379.839844 220.546875 378 220.5 C 381.535156 214.867188 385.195312 209.335938 388.96875 203.859375 C 392.167969 199.214844 395.300781 194.558594 398.25 189.75 C 397.234375 188.261719 396.21875 186.777344 395.199219 185.289062 C 394.324219 184.007812 393.445312 182.722656 392.566406 181.4375 C 390.394531 178.261719 388.21875 175.089844 386.015625 171.933594 C 385.636719 171.386719 385.253906 170.84375 384.863281 170.28125 C 384.140625 169.242188 383.417969 168.207031 382.691406 167.175781 C 380.25 163.667969 380.25 163.667969 380.25 162 Z M 380.25 162 "/>
<path style=" stroke:none;fill-rule:nonzero;fill:rgb(4.313726%,9.803922%,14.509805%);fill-opacity:1;" d="M 690.460938 163.820312 C 693.144531 165.542969 694.964844 166.820312 696.75 169.5 C 696.324219 169.863281 695.902344 170.222656 695.464844 170.59375 C 694.914062 171.070312 694.363281 171.542969 693.796875 172.03125 C 693.25 172.5 692.699219 172.972656 692.136719 173.453125 C 690.6875 174.65625 690.6875 174.65625 690 176.25 C 689.378906 175.929688 689.378906 175.929688 688.742188 175.601562 C 682.542969 172.578125 676.496094 170.28125 669.703125 172.5 C 669.222656 172.746094 668.742188 172.996094 668.25 173.25 C 668.171875 174.179688 668.09375 175.105469 668.015625 176.0625 C 667.972656 176.585938 667.929688 177.105469 667.882812 177.644531 C 668.140625 179.378906 668.140625 179.378906 669.632812 180.765625 C 673.554688 183.222656 677.914062 184.4375 682.289062 185.867188 C 689.234375 188.246094 694.789062 191.617188 698.4375 198.1875 C 699.9375 203.691406 699.117188 207.867188 696.351562 212.828125 C 693.066406 217.8125 688.164062 219.988281 682.5 221.25 C 672.371094 222.160156 663.824219 220.644531 655.5 214.5 C 654.050781 213.066406 652.941406 211.664062 651.75 210 C 654.472656 207.773438 657.195312 205.546875 660 203.25 C 661.300781 204.292969 661.300781 204.292969 662.625 205.359375 C 668.339844 209.585938 673.84375 211.007812 681 210 C 683.101562 209.101562 683.101562 209.101562 684.75 207.75 C 685.753906 205.234375 685.753906 205.234375 685.5 202.5 C 682.449219 198.378906 678.429688 197.332031 673.6875 195.796875 C 666.414062 193.4375 659.214844 190.867188 655.5 183.75 C 654.199219 179.421875 654.050781 175.027344 655.921875 170.859375 C 658.957031 165.5625 663.308594 162.890625 669.03125 161.019531 C 676.253906 159.332031 683.941406 160.261719 690.460938 163.820312 Z M 690.460938 163.820312 "/>
<path style=" stroke:none;fill-rule:nonzero;fill:rgb(6.666667%,12.941177%,18.039216%);fill-opacity:1;" d="M 446.25 162 C 462.335938 162 478.425781 162 495 162 C 495 165.710938 495 169.425781 495 173.25 C 489.058594 173.25 483.121094 173.25 477 173.25 C 477 188.84375 477 204.433594 477 220.5 C 472.546875 220.5 468.089844 220.5 463.5 220.5 C 463.5 204.90625 463.5 189.316406 463.5 173.25 C 457.808594 173.25 452.113281 173.25 446.25 173.25 C 446.25 169.539062 446.25 165.824219 446.25 162 Z M 446.25 162 "/>
<path style=" stroke:none;fill-rule:nonzero;fill:rgb(5.098039%,11.764706%,16.862746%);fill-opacity:1;" d="M 259.5 162 C 275.835938 162 292.171875 162 309 162 C 309 165.464844 309 168.929688 309 172.5 C 303.058594 172.5 297.121094 172.5 291 172.5 C 291 188.339844 291 204.179688 291 220.5 C 286.546875 220.5 282.089844 220.5 277.5 220.5 C 277.5 204.90625 277.5 189.316406 277.5 173.25 C 271.558594 173.25 265.621094 173.25 259.5 173.25 C 259.5 169.539062 259.5 165.824219 259.5 162 Z M 259.5 162 "/>
<path style=" stroke:none;fill-rule:nonzero;fill:rgb(5.882353%,12.156863%,17.254902%);fill-opacity:1;" d="M 541.5 162 C 545.953125 162 550.410156 162 555 162 C 555 177.59375 555 193.183594 555 209.25 C 563.910156 209.25 572.820312 209.25 582 209.25 C 582 212.960938 582 216.675781 582 220.5 C 568.636719 220.5 555.269531 220.5 541.5 220.5 C 541.5 201.195312 541.5 181.890625 541.5 162 Z M 541.5 162 "/>
<path style=" stroke:none;fill-rule:nonzero;fill:rgb(98.431373%,98.431373%,98.431373%);fill-opacity:1;" d="M 408 87 C 411.84375 86.949219 415.683594 86.902344 419.527344 86.875 C 420.832031 86.863281 422.136719 86.851562 423.441406 86.832031 C 425.324219 86.800781 427.210938 86.789062 429.09375 86.78125 C 429.667969 86.769531 430.246094 86.757812 430.839844 86.746094 C 435.800781 86.742188 439.695312 87.910156 443.90625 90.65625 C 446.660156 93.410156 447.21875 96.261719 447.234375 100.078125 C 447.140625 104.527344 446.257812 107.242188 443.0625 110.4375 C 438.664062 113.234375 434.210938 113.464844 429.167969 113.398438 C 428.558594 113.394531 427.949219 113.390625 427.324219 113.390625 C 425.398438 113.382812 423.472656 113.363281 421.546875 113.34375 C 420.234375 113.335938 418.921875 113.328125 417.609375 113.324219 C 414.40625 113.308594 411.203125 113.277344 408 113.25 C 408 104.585938 408 95.925781 408 87 Z M 408 87 "/>
<path style=" stroke:none;fill-rule:nonzero;fill:rgb(99.215686%,99.215686%,99.215686%);fill-opacity:1;" d="M 513 87 C 517.316406 86.953125 521.632812 86.90625 526.078125 86.859375 C 527.425781 86.839844 528.773438 86.820312 530.164062 86.796875 C 543.648438 86.675781 543.648438 86.675781 548.953125 91.078125 C 551.769531 94.574219 552.34375 97.109375 552.230469 101.546875 C 551.804688 105.15625 550.625 108.171875 547.765625 110.511719 C 543.234375 113.269531 538.882812 113.359375 533.726562 113.324219 C 533.132812 113.320312 532.539062 113.320312 531.925781 113.320312 C 530.039062 113.316406 528.152344 113.304688 526.265625 113.296875 C 524.980469 113.292969 523.699219 113.289062 522.414062 113.285156 C 519.277344 113.277344 516.136719 113.265625 513 113.25 C 513 104.585938 513 95.925781 513 87 Z M 513 87 "/>
<path style=" stroke:none;fill-rule:nonzero;fill:rgb(98.039216%,98.039216%,98.039216%);fill-opacity:1;" d="M 408 45 C 411.695312 44.953125 415.394531 44.90625 419.203125 44.859375 C 420.355469 44.839844 421.507812 44.820312 422.695312 44.796875 C 429.363281 44.757812 435.488281 44.765625 440.671875 49.453125 C 443.03125 52.542969 443.046875 55.609375 442.84375 59.390625 C 442.25 63.035156 440.703125 64.976562 437.953125 67.3125 C 431.390625 70.105469 424.242188 69.945312 417.234375 69.84375 C 414.1875 69.8125 411.140625 69.78125 408 69.75 C 408 61.582031 408 53.414062 408 45 Z M 408 45 "/>
<path style=" stroke:none;fill-rule:nonzero;fill:rgb(99.215686%,99.215686%,99.215686%);fill-opacity:1;" d="M 513 45 C 516.449219 44.96875 519.898438 44.9375 523.453125 44.90625 C 524.527344 44.894531 525.601562 44.878906 526.707031 44.863281 C 540.398438 44.804688 540.398438 44.804688 544.5 48.75 C 544.917969 49.136719 545.335938 49.523438 545.765625 49.921875 C 548.226562 52.617188 547.746094 55.792969 547.703125 59.261719 C 547.425781 62.335938 546.683594 63.816406 544.5 66 C 537.851562 70.546875 530.101562 69.851562 522.375 69.796875 C 519.28125 69.78125 516.1875 69.765625 513 69.75 C 513 61.582031 513 53.414062 513 45 Z M 513 45 "/>
<path style=" stroke:none;fill-rule:nonzero;fill:rgb(3.529412%,9.019608%,13.725491%);fill-opacity:1;" d="M 509.25 162 C 513.457031 162 517.664062 162 522 162 C 522 181.304688 522 200.609375 522 220.5 C 517.792969 220.5 513.585938 220.5 509.25 220.5 C 509.25 201.195312 509.25 181.890625 509.25 162 Z M 509.25 162 "/>
<path style=" stroke:none;fill-rule:nonzero;fill:rgb(98.431373%,98.431373%,98.823529%);fill-opacity:1;" d="M 315 52.5 C 316.65625 54.558594 317.746094 56.445312 318.675781 58.914062 C 318.929688 59.585938 319.1875 60.257812 319.449219 60.945312 C 319.714844 61.664062 319.984375 62.382812 320.257812 63.125 C 320.679688 64.234375 320.679688 64.234375 321.105469 65.371094 C 321.695312 66.933594 322.28125 68.496094 322.867188 70.0625 C 323.765625 72.46875 324.671875 74.867188 325.578125 77.265625 C 326.148438 78.785156 326.71875 80.304688 327.289062 81.828125 C 327.5625 82.546875 327.832031 83.269531 328.113281 84.011719 C 328.363281 84.675781 328.609375 85.34375 328.867188 86.027344 C 329.085938 86.617188 329.304688 87.203125 329.53125 87.808594 C 330 89.25 330 89.25 330 90.75 C 320.59375 90.75 311.191406 90.75 301.5 90.75 C 302.457031 86.445312 303.273438 82.929688 304.820312 78.925781 C 305.167969 78.011719 305.519531 77.09375 305.882812 76.152344 C 306.25 75.203125 306.617188 74.257812 306.984375 73.3125 C 307.34375 72.378906 307.703125 71.445312 308.0625 70.507812 C 309.121094 67.753906 310.183594 65.003906 311.25 62.25 C 311.964844 60.394531 312.679688 58.539062 313.390625 56.683594 C 313.699219 55.878906 314.011719 55.074219 314.328125 54.242188 C 314.550781 53.667969 314.773438 53.09375 315 52.5 Z M 315 52.5 "/>
<path style=" stroke:none;fill-rule:nonzero;fill:rgb(98.431373%,98.431373%,98.823529%);fill-opacity:1;" d="M 637.5 52.5 C 638.976562 54.363281 640.097656 56.046875 640.933594 58.269531 C 641.136719 58.800781 641.339844 59.332031 641.546875 59.878906 C 641.757812 60.445312 641.96875 61.015625 642.1875 61.601562 C 642.410156 62.195312 642.636719 62.789062 642.867188 63.398438 C 643.339844 64.65625 643.8125 65.914062 644.28125 67.171875 C 644.992188 69.074219 645.710938 70.972656 646.429688 72.875 C 646.890625 74.097656 647.351562 75.324219 647.8125 76.554688 C 648.023438 77.113281 648.234375 77.671875 648.453125 78.246094 C 649.992188 82.386719 651.222656 86.496094 652.5 90.75 C 643.09375 90.75 633.691406 90.75 624 90.75 C 624.515625 87.660156 624.933594 85.457031 626.003906 82.640625 C 626.261719 81.964844 626.515625 81.289062 626.777344 80.59375 C 627.054688 79.878906 627.328125 79.164062 627.613281 78.429688 C 628.035156 77.3125 628.035156 77.3125 628.464844 76.175781 C 629.363281 73.8125 630.269531 71.453125 631.171875 69.09375 C 631.78125 67.488281 632.394531 65.882812 633.003906 64.277344 C 634.5 60.351562 635.996094 56.425781 637.5 52.5 Z M 637.5 52.5 "/>
<path style=" stroke:none;fill-rule:nonzero;fill:rgb(3.921569%,5.490196%,7.058824%);fill-opacity:1;" d="M 446.25 162 C 462.335938 162 478.425781 162 495 162 C 495 165.710938 495 169.425781 495 173.25 C 489.058594 173.25 483.121094 173.25 477 173.25 C 477 188.84375 477 204.433594 477 220.5 C 472.792969 220.5 468.585938 220.5 464.25 220.5 C 464.25 204.90625 464.25 189.316406 464.25 173.25 C 464.496094 173.25 464.746094 173.25 465 173.25 C 465 188.347656 465 203.445312 465 219 C 468.464844 219 471.929688 219 475.5 219 C 475.5 203.65625 475.5 188.308594 475.5 172.5 C 477.417969 171.542969 478.777344 171.664062 480.921875 171.675781 C 481.695312 171.679688 482.46875 171.679688 483.265625 171.683594 C 484.074219 171.691406 484.882812 171.695312 485.71875 171.703125 C 486.941406 171.707031 486.941406 171.707031 488.191406 171.714844 C 490.210938 171.722656 492.230469 171.734375 494.25 171.75 C 494.25 168.78125 494.25 165.808594 494.25 162.75 C 478.90625 162.75 463.558594 162.75 447.75 162.75 C 447.75 165.71875 447.75 168.691406 447.75 171.75 C 453.195312 171.75 458.640625 171.75 464.25 171.75 C 464.25 171.996094 464.25 172.246094 464.25 172.5 C 458.308594 172.5 452.371094 172.5 446.25 172.5 C 446.25 169.035156 446.25 165.570312 446.25 162 Z M 446.25 162 "/>
<path style=" stroke:none;fill-rule:nonzero;fill:rgb(10.588235%,12.156863%,14.117648%);fill-opacity:1;" d="M 541.5 162 C 545.707031 162 549.914062 162 554.25 162 C 554.25 177.59375 554.25 193.183594 554.25 209.25 C 554.003906 209.25 553.753906 209.25 553.5 209.25 C 553.5 193.90625 553.5 178.558594 553.5 162.75 C 550.035156 162.75 546.570312 162.75 543 162.75 C 543 181.3125 543 199.875 543 219 C 555.621094 219 568.246094 219 581.25 219 C 581.25 216.277344 581.25 213.554688 581.25 210.75 C 572.339844 210.75 563.429688 210.75 554.25 210.75 C 554.25 210.503906 554.25 210.253906 554.25 210 C 563.40625 209.753906 572.566406 209.503906 582 209.25 C 582 212.960938 582 216.675781 582 220.5 C 568.636719 220.5 555.269531 220.5 541.5 220.5 C 541.5 201.195312 541.5 181.890625 541.5 162 Z M 541.5 162 "/>
<path style=" stroke:none;fill-rule:nonzero;fill:rgb(0.392157%,1.568628%,3.529412%);fill-opacity:1;" d="M 260.25 162 C 276.335938 162 292.425781 162 309 162 C 309 165.464844 309 168.929688 309 172.5 C 303.058594 172.5 297.121094 172.5 291 172.5 C 291 188.339844 291 204.179688 291 220.5 C 286.546875 220.5 282.089844 220.5 277.5 220.5 C 277.746094 204.90625 277.996094 189.316406 278.25 173.25 C 278.496094 173.25 278.746094 173.25 279 173.25 C 279 188.347656 279 203.445312 279 219 C 282.464844 219 285.929688 219 289.5 219 C 289.496094 217.59375 289.492188 216.191406 289.488281 214.742188 C 289.476562 210.113281 289.46875 205.480469 289.460938 200.851562 C 289.457031 198.042969 289.453125 195.234375 289.445312 192.421875 C 289.433594 189.714844 289.429688 187.007812 289.429688 184.296875 C 289.425781 183.261719 289.425781 182.226562 289.421875 181.191406 C 289.414062 179.746094 289.414062 178.300781 289.414062 176.855469 C 289.414062 176.027344 289.410156 175.203125 289.410156 174.355469 C 289.5 172.5 289.5 172.5 290.25 171.75 C 291.585938 171.683594 292.921875 171.667969 294.261719 171.675781 C 295.070312 171.679688 295.878906 171.679688 296.714844 171.683594 C 297.992188 171.695312 297.992188 171.695312 299.296875 171.703125 C 300.578125 171.707031 300.578125 171.707031 301.886719 171.714844 C 304.007812 171.722656 306.128906 171.734375 308.25 171.75 C 308.25 168.78125 308.25 165.808594 308.25 162.75 C 292.65625 162.75 277.066406 162.75 261 162.75 C 261 165.71875 261 168.691406 261 171.75 C 266.445312 171.75 271.890625 171.75 277.5 171.75 C 277.5 171.996094 277.5 172.246094 277.5 172.5 C 271.808594 172.5 266.113281 172.5 260.25 172.5 C 260.25 169.035156 260.25 165.570312 260.25 162 Z M 260.25 162 "/>
<path style=" stroke:none;fill-rule:nonzero;fill:rgb(8.235294%,13.333334%,18.039216%);fill-opacity:1;" d="M 324 162 C 326.722656 162.246094 329.445312 162.496094 332.25 162.75 C 332.25 162.996094 332.25 163.246094 332.25 163.5 C 330.269531 163.5 328.289062 163.5 326.25 163.5 C 326.25 181.566406 326.25 199.636719 326.25 218.25 C 339.121094 218.25 351.988281 218.25 365.25 218.25 C 365.25 218.992188 365.25 219.734375 365.25 220.5 C 351.636719 220.5 338.023438 220.5 324 220.5 C 324 201.195312 324 181.890625 324 162 Z M 324 162 "/>
<path style=" stroke:none;fill-rule:nonzero;fill:rgb(20.392157%,23.529412%,26.666668%);fill-opacity:1;" d="M 597 162 C 597.246094 162 597.496094 162 597.75 162 C 597.859375 166.863281 597.964844 171.726562 598.070312 176.589844 C 598.105469 178.234375 598.140625 179.878906 598.179688 181.519531 C 598.460938 194.019531 598.5 206.492188 598.5 219 C 611.863281 219 625.230469 219 639 219 C 639 219.496094 639 219.988281 639 220.5 C 625.140625 220.5 611.28125 220.5 597 220.5 C 597 201.195312 597 181.890625 597 162 Z M 597 162 "/>
<path style=" stroke:none;fill-rule:nonzero;fill:rgb(7.843138%,13.333334%,18.431373%);fill-opacity:1;" d="M 510 162.75 C 513.960938 162.75 517.921875 162.75 522 162.75 C 522 181.808594 522 200.863281 522 220.5 C 517.792969 220.5 513.585938 220.5 509.25 220.5 C 509.496094 219.757812 509.746094 219.015625 510 218.25 C 513.21875 218.25 516.433594 218.25 519.75 218.25 C 519.75 200.183594 519.75 182.113281 519.75 163.5 C 514.921875 163.871094 514.921875 163.871094 510 164.25 C 510 163.753906 510 163.261719 510 162.75 Z M 510 162.75 "/>
<path style=" stroke:none;fill-rule:nonzero;fill:rgb(9.411765%,11.372549%,14.509805%);fill-opacity:1;" d="M 335.25 172.5 C 345.148438 172.5 355.050781 172.5 365.25 172.5 C 365.25 172.746094 365.25 172.996094 365.25 173.25 C 355.84375 173.25 346.441406 173.25 336.75 173.25 C 336.75 177.457031 336.75 181.664062 336.75 186 C 345.164062 186 353.578125 186 362.25 186 C 362.25 189.21875 362.25 192.433594 362.25 195.75 C 353.835938 195.75 345.421875 195.75 336.75 195.75 C 336.75 195.503906 336.75 195.253906 336.75 195 C 344.671875 195 352.589844 195 360.75 195 C 360.75 192.523438 360.75 190.050781 360.75 187.5 C 360.03125 187.507812 359.3125 187.515625 358.570312 187.523438 C 355.90625 187.550781 353.242188 187.566406 350.578125 187.582031 C 349.425781 187.589844 348.269531 187.601562 347.117188 187.613281 C 345.460938 187.632812 343.804688 187.640625 342.148438 187.648438 C 341.628906 187.652344 341.113281 187.660156 340.578125 187.671875 C 339.300781 187.671875 338.023438 187.589844 336.75 187.5 C 336.253906 187.003906 335.761719 186.511719 335.25 186 C 335.25 181.546875 335.25 177.089844 335.25 172.5 Z M 335.25 172.5 "/>
<path style=" stroke:none;fill-rule:nonzero;fill:rgb(2.352941%,3.921569%,6.27451%);fill-opacity:1;" d="M 609.75 186 C 618.164062 186 626.578125 186 635.25 186 C 635.25 189.21875 635.25 192.433594 635.25 195.75 C 626.835938 195.75 618.421875 195.75 609.75 195.75 C 609.75 195.503906 609.75 195.253906 609.75 195 C 617.671875 195 625.589844 195 633.75 195 C 633.75 192.523438 633.75 190.050781 633.75 187.5 C 626.078125 187.5 618.40625 187.5 610.5 187.5 C 610.253906 187.003906 610.003906 186.511719 609.75 186 Z M 609.75 186 "/>
<path style=" stroke:none;fill-rule:nonzero;fill:rgb(4.705882%,6.27451%,8.627451%);fill-opacity:1;" d="M 278.25 173.25 C 278.496094 173.25 278.746094 173.25 279 173.25 C 279 188.347656 279 203.445312 279 219 C 282.960938 219 286.921875 219 291 219 C 291 219.496094 291 219.988281 291 220.5 C 286.546875 220.5 282.089844 220.5 277.5 220.5 C 277.746094 204.90625 277.996094 189.316406 278.25 173.25 Z M 278.25 173.25 "/>
<path style=" stroke:none;fill-rule:nonzero;fill:rgb(10.196079%,13.333334%,16.862746%);fill-opacity:1;" d="M 671.25 160.5 C 672.703125 160.460938 674.15625 160.429688 675.609375 160.40625 C 676.417969 160.390625 677.226562 160.371094 678.0625 160.351562 C 680.25 160.5 680.25 160.5 682.5 162 C 680.035156 162.820312 678.199219 162.824219 675.609375 162.796875 C 674.386719 162.785156 674.386719 162.785156 673.140625 162.777344 C 672.515625 162.769531 671.890625 162.757812 671.25 162.75 C 671.25 162.007812 671.25 161.265625 671.25 160.5 Z M 671.25 160.5 "/>
<path style=" stroke:none;fill-rule:nonzero;fill:rgb(9.803922%,14.509805%,18.431373%);fill-opacity:1;" d="M 442.5 54.75 C 443.242188 54.75 443.984375 54.75 444.75 54.75 C 444.75 56.730469 444.75 58.710938 444.75 60.75 C 444.253906 60.75 443.761719 60.75 443.25 60.75 C 443.25 61.988281 443.25 63.226562 443.25 64.5 C 442.507812 64.871094 442.507812 64.871094 441.75 65.25 C 441.503906 64.507812 441.253906 63.765625 441 63 C 441.246094 62.503906 441.496094 62.011719 441.75 61.5 C 441.917969 60.347656 442.054688 59.191406 442.171875 58.03125 C 442.234375 57.417969 442.296875 56.804688 442.363281 56.171875 C 442.40625 55.703125 442.453125 55.234375 442.5 54.75 Z M 442.5 54.75 "/>
<path style=" stroke:none;fill-rule:nonzero;fill:rgb(10.588235%,30.19608%,18.82353%);fill-opacity:1;" d="M 97.5 85.5 C 98.90625 85.6875 98.90625 85.6875 100.5 86.25 C 101.4375 87.796875 101.4375 87.796875 102 89.25 C 99.75 89.25 99.75 89.25 98.484375 88.21875 C 97.5 87 97.5 87 97.5 85.5 Z M 97.5 85.5 "/>
<path style=" stroke:none;fill-rule:nonzero;fill:rgb(9.019608%,29.019609%,17.647059%);fill-opacity:1;" d="M 131.25 108.75 C 131.992188 108.75 132.734375 108.75 133.5 108.75 C 132.984375 110.203125 132.984375 110.203125 132 111.75 C 130.03125 112.3125 130.03125 112.3125 128.25 112.5 C 129.609375 110.625 129.609375 110.625 131.25 108.75 Z M 131.25 108.75 "/>
<path style=" stroke:none;fill-rule:nonzero;fill:rgb(11.764706%,15.686275%,18.82353%);fill-opacity:1;" d="M 541.5 44.25 C 541.746094 44.746094 541.996094 45.238281 542.25 45.75 C 539.566406 46.679688 537.496094 46.3125 534.75 45.75 C 537.328125 44.03125 538.488281 44.117188 541.5 44.25 Z M 541.5 44.25 "/>
<path style=" stroke:none;fill-rule:nonzero;fill:rgb(1.568628%,18.82353%,7.843138%);fill-opacity:1;" d="M 132 26.25 C 132.75 27.75 132.75 27.75 132.28125 29.296875 C 131.25 30.75 131.25 30.75 129.28125 31.3125 C 128.398438 31.40625 128.398438 31.40625 127.5 31.5 C 128.984375 29.765625 130.46875 28.035156 132 26.25 Z M 132 26.25 "/>
</g>
</svg>
